<svg xmlns="http://www.w3.org/2000/svg" xmlns:xlink="http://www.w3.org/1999/xlink" width="500" zoomAndPan="magnify" viewBox="0 0 375 374.999991" height="500" preserveAspectRatio="xMidYMid meet" version="1.0"><defs><g/><clipPath id="6799218d88"><path d="M 67.363281 34 L 306 34 L 306 264 L 67.363281 264 Z M 67.363281 34 " clip-rule="nonzero"/></clipPath></defs><rect x="-37.5" width="450" fill="#ffffff" y="-37.499999" height="449.999989" fill-opacity="1"/><rect x="-37.5" width="450" fill="#e31837" y="-37.499999" height="449.999989" fill-opacity="1"/><g clip-path="url(#6799218d88)"><path fill="#000000" d="M 302.285156 97.113281 C 292.445312 58.863281 259.792969 34.230469 220.375 34.207031 C 174.75 34.171875 129.121094 34.195312 83.496094 34.195312 L 101.371094 65.761719 C 141.0625 65.683594 180.734375 65.707031 220.425781 65.742188 C 233.515625 65.742188 245.3125 69.59375 255.253906 78.332031 C 270.738281 91.925781 275.441406 109.5625 273.382812 129.363281 C 271.035156 152.292969 256.019531 171.542969 235.539062 176.46875 C 226.851562 178.570312 217.503906 177.742188 208.507812 178.648438 C 203.414062 179.175781 200.824219 177.050781 198.414062 172.792969 C 181.832031 143.542969 164.996094 114.429688 148.238281 85.296875 C 145.183594 79.96875 141.84375 79.914062 138.824219 85.140625 C 134.378906 92.859375 129.929688 100.582031 125.480469 108.300781 C 106.6875 140.949219 87.886719 173.574219 69.113281 206.242188 C 68.542969 207.246094 68.15625 208.34375 67.367188 210.117188 L 72.464844 210.117188 C 107.742188 210.117188 143.027344 210.195312 178.304688 209.996094 C 180.875 209.976562 182.65625 210.523438 184.105469 211.78125 C 185.027344 212.550781 185.789062 213.585938 186.554688 214.941406 C 195.769531 231.265625 205.195312 247.46875 214.464844 263.773438 L 250.960938 263.773438 C 246.609375 256.1875 242.433594 248.980469 238.296875 241.769531 C 232.398438 231.535156 226.535156 221.285156 220.714844 211.105469 C 221.417969 210.554688 221.636719 210.234375 221.890625 210.222656 C 222.945312 210.125 224.027344 210.089844 225.105469 210.046875 C 241.238281 209.375 255.859375 204.308594 269.125 195.152344 C 301.890625 172.621094 311.105469 131.445312 302.285156 97.113281 Z M 121.671875 178.203125 C 128.964844 165.511719 136.003906 153.273438 143.449219 140.3125 C 147.644531 147.621094 151.699219 154.691406 155.78125 161.800781 C 158.898438 167.203125 162.011719 172.644531 165.207031 178.203125 Z M 121.671875 178.203125 " fill-opacity="1" fill-rule="nonzero"/></g><g fill="#000000" fill-opacity="1"><g transform="translate(109.12153, 344.382605)"><g><path d="M 28.25 -23.15625 C 33.132812 -23.15625 37.628906 -23.953125 41.734375 -25.546875 C 45.835938 -27.148438 49.144531 -29.613281 51.65625 -32.9375 C 54.164062 -36.257812 55.421875 -40.332031 55.421875 -45.15625 C 55.421875 -52.382812 52.992188 -57.738281 48.140625 -61.21875 C 43.285156 -64.707031 36.945312 -66.453125 29.125 -66.453125 L 8.3125 -66.453125 L 8.3125 0 L 20.921875 0 L 20.921875 -23.15625 Z M 28.734375 -55.90625 C 33.097656 -55.90625 36.40625 -55.007812 38.65625 -53.21875 C 40.90625 -51.425781 42.03125 -48.476562 42.03125 -44.375 C 41.769531 -40.789062 40.5 -38.101562 38.21875 -36.3125 C 35.9375 -34.519531 32.835938 -33.625 28.921875 -33.625 L 20.921875 -33.625 L 20.921875 -55.90625 Z M 28.734375 -55.90625 "/></g></g></g><g fill="#000000" fill-opacity="1"><g transform="translate(166.975867, 344.382605)"><g><path d="M 20.921875 0 L 20.921875 -25.21875 L 32.84375 -25.21875 L 46.90625 0 L 60.40625 0 L 44.078125 -28.53125 C 47.535156 -30.226562 50.289062 -32.578125 52.34375 -35.578125 C 54.394531 -38.578125 55.421875 -42.0625 55.421875 -46.03125 C 55.421875 -52.675781 52.957031 -57.738281 48.03125 -61.21875 C 43.113281 -64.707031 36.8125 -66.453125 29.125 -66.453125 L 8.3125 -66.453125 L 8.3125 0 Z M 28.734375 -55.90625 C 37.597656 -55.90625 42.03125 -52.421875 42.03125 -45.453125 C 42.03125 -42.054688 40.835938 -39.5625 38.453125 -37.96875 C 36.078125 -36.375 32.898438 -35.578125 28.921875 -35.578125 L 20.921875 -35.578125 L 20.921875 -55.90625 Z M 28.734375 -55.90625 "/></g></g></g><g fill="#000000" fill-opacity="1"><g transform="translate(228.348367, 344.382605)"><g><path d="M 35.96875 -68.015625 C 29.582031 -67.890625 23.910156 -66.328125 18.953125 -63.328125 C 14.003906 -60.335938 10.175781 -56.203125 7.46875 -50.921875 C 4.769531 -45.640625 3.421875 -39.644531 3.421875 -32.9375 C 3.421875 -26.488281 4.707031 -20.671875 7.28125 -15.484375 C 9.851562 -10.304688 13.597656 -6.203125 18.515625 -3.171875 C 23.441406 -0.140625 29.257812 1.375 35.96875 1.375 C 42.414062 1.238281 48.097656 -0.304688 53.015625 -3.265625 C 57.941406 -6.234375 61.769531 -10.335938 64.5 -15.578125 C 67.238281 -20.828125 68.609375 -26.84375 68.609375 -33.625 C 68.609375 -40.070312 67.320312 -45.898438 64.75 -51.109375 C 62.175781 -56.328125 58.410156 -60.445312 53.453125 -63.46875 C 48.503906 -66.5 42.675781 -68.015625 35.96875 -68.015625 Z M 16.609375 -33.03125 C 16.609375 -37.851562 17.503906 -42.101562 19.296875 -45.78125 C 21.085938 -49.46875 23.46875 -52.300781 26.4375 -54.28125 C 29.40625 -56.269531 32.644531 -57.265625 36.15625 -57.265625 C 40 -57.265625 43.382812 -56.253906 46.3125 -54.234375 C 49.25 -52.222656 51.5 -49.425781 53.0625 -45.84375 C 54.632812 -42.257812 55.421875 -38.1875 55.421875 -33.625 C 55.421875 -28.34375 54.554688 -23.859375 52.828125 -20.171875 C 51.097656 -16.492188 48.75 -13.757812 45.78125 -11.96875 C 42.820312 -10.175781 39.519531 -9.28125 35.875 -9.28125 C 31.957031 -9.28125 28.550781 -10.273438 25.65625 -12.265625 C 22.757812 -14.253906 20.523438 -17.054688 18.953125 -20.671875 C 17.390625 -24.285156 16.609375 -28.40625 16.609375 -33.03125 Z M 16.609375 -33.03125 "/></g></g></g><path stroke-linecap="butt" transform="matrix(0, 0.75, -0.75, 0, 109.46736, 33.877897)" fill="none" stroke-linejoin="miter" d="M 0.00134581 27.998148 L 413.329498 27.998148 " stroke="#000000" stroke-width="56" stroke-opacity="1" stroke-miterlimit="4"/></svg>