<svg xmlns="http://www.w3.org/2000/svg" xmlns:xlink="http://www.w3.org/1999/xlink" width="500" zoomAndPan="magnify" viewBox="0 0 375 374.999991" height="500" preserveAspectRatio="xMidYMid meet" version="1.0"><defs><g/><clipPath id="85464430c8"><path d="M 67.363281 34 L 306 34 L 306 264 L 67.363281 264 Z M 67.363281 34 " clip-rule="nonzero"/></clipPath></defs><rect x="-37.5" width="450" fill="#ffffff" y="-37.499999" height="449.999989" fill-opacity="1"/><rect x="-37.5" width="450" fill="#e31837" y="-37.499999" height="449.999989" fill-opacity="1"/><g clip-path="url(#85464430c8)"><path fill="#ffffff" d="M 302.554688 97.042969 C 292.703125 58.835938 260.015625 34.230469 220.550781 34.207031 C 174.875 34.171875 129.191406 34.195312 83.511719 34.195312 L 101.414062 65.730469 C 141.148438 65.652344 180.863281 65.671875 220.601562 65.707031 C 233.710938 65.707031 245.519531 69.554688 255.46875 78.285156 C 270.972656 91.867188 275.679688 109.484375 273.621094 129.261719 C 271.269531 152.164062 256.238281 171.394531 235.730469 176.316406 C 227.035156 178.414062 217.675781 177.589844 208.671875 178.492188 C 203.570312 179.019531 200.976562 176.898438 198.566406 172.644531 C 181.964844 143.425781 165.109375 114.34375 148.328125 85.242188 C 145.273438 79.921875 141.929688 79.863281 138.910156 85.085938 C 134.453125 92.796875 130 100.511719 125.546875 108.222656 C 106.734375 140.832031 87.910156 173.425781 69.117188 206.058594 C 68.546875 207.058594 68.15625 208.160156 67.367188 209.929688 L 72.472656 209.929688 C 107.789062 209.929688 143.113281 210.003906 178.433594 209.808594 C 181.007812 209.785156 182.789062 210.335938 184.242188 211.589844 C 185.164062 212.359375 185.925781 213.394531 186.691406 214.746094 C 195.917969 231.054688 205.351562 247.242188 214.632812 263.527344 L 251.171875 263.527344 C 246.816406 255.949219 242.636719 248.75 238.492188 241.546875 C 232.589844 231.320312 226.71875 221.082031 220.890625 210.914062 C 221.59375 210.363281 221.8125 210.046875 222.066406 210.035156 C 223.125 209.933594 224.210938 209.898438 225.289062 209.855469 C 241.4375 209.1875 256.074219 204.128906 269.359375 194.980469 C 302.160156 172.472656 311.386719 131.339844 302.554688 97.042969 Z M 121.734375 178.046875 C 129.035156 165.371094 136.082031 153.144531 143.539062 140.199219 C 147.738281 147.5 151.796875 154.5625 155.882812 161.664062 C 159.003906 167.0625 162.121094 172.496094 165.320312 178.046875 Z M 121.734375 178.046875 " fill-opacity="1" fill-rule="nonzero"/></g><g fill="#ffffff" fill-opacity="1"><g transform="translate(109.12153, 344.382605)"><g><path d="M 28.25 -23.15625 C 33.132812 -23.15625 37.628906 -23.953125 41.734375 -25.546875 C 45.835938 -27.148438 49.144531 -29.613281 51.65625 -32.9375 C 54.164062 -36.257812 55.421875 -40.332031 55.421875 -45.15625 C 55.421875 -52.382812 52.992188 -57.738281 48.140625 -61.21875 C 43.285156 -64.707031 36.945312 -66.453125 29.125 -66.453125 L 8.3125 -66.453125 L 8.3125 0 L 20.921875 0 L 20.921875 -23.15625 Z M 28.734375 -55.90625 C 33.097656 -55.90625 36.40625 -55.007812 38.65625 -53.21875 C 40.90625 -51.425781 42.03125 -48.476562 42.03125 -44.375 C 41.769531 -40.789062 40.5 -38.101562 38.21875 -36.3125 C 35.9375 -34.519531 32.835938 -33.625 28.921875 -33.625 L 20.921875 -33.625 L 20.921875 -55.90625 Z M 28.734375 -55.90625 "/></g></g></g><g fill="#ffffff" fill-opacity="1"><g transform="translate(166.975867, 344.382605)"><g><path d="M 20.921875 0 L 20.921875 -25.21875 L 32.84375 -25.21875 L 46.90625 0 L 60.40625 0 L 44.078125 -28.53125 C 47.535156 -30.226562 50.289062 -32.578125 52.34375 -35.578125 C 54.394531 -38.578125 55.421875 -42.0625 55.421875 -46.03125 C 55.421875 -52.675781 52.957031 -57.738281 48.03125 -61.21875 C 43.113281 -64.707031 36.8125 -66.453125 29.125 -66.453125 L 8.3125 -66.453125 L 8.3125 0 Z M 28.734375 -55.90625 C 37.597656 -55.90625 42.03125 -52.421875 42.03125 -45.453125 C 42.03125 -42.054688 40.835938 -39.5625 38.453125 -37.96875 C 36.078125 -36.375 32.898438 -35.578125 28.921875 -35.578125 L 20.921875 -35.578125 L 20.921875 -55.90625 Z M 28.734375 -55.90625 "/></g></g></g><g fill="#ffffff" fill-opacity="1"><g transform="translate(228.348367, 344.382605)"><g><path d="M 35.96875 -68.015625 C 29.582031 -67.890625 23.910156 -66.328125 18.953125 -63.328125 C 14.003906 -60.335938 10.175781 -56.203125 7.46875 -50.921875 C 4.769531 -45.640625 3.421875 -39.644531 3.421875 -32.9375 C 3.421875 -26.488281 4.707031 -20.671875 7.28125 -15.484375 C 9.851562 -10.304688 13.597656 -6.203125 18.515625 -3.171875 C 23.441406 -0.140625 29.257812 1.375 35.96875 1.375 C 42.414062 1.238281 48.097656 -0.304688 53.015625 -3.265625 C 57.941406 -6.234375 61.769531 -10.335938 64.5 -15.578125 C 67.238281 -20.828125 68.609375 -26.84375 68.609375 -33.625 C 68.609375 -40.070312 67.320312 -45.898438 64.75 -51.109375 C 62.175781 -56.328125 58.410156 -60.445312 53.453125 -63.46875 C 48.503906 -66.5 42.675781 -68.015625 35.96875 -68.015625 Z M 16.609375 -33.03125 C 16.609375 -37.851562 17.503906 -42.101562 19.296875 -45.78125 C 21.085938 -49.46875 23.46875 -52.300781 26.4375 -54.28125 C 29.40625 -56.269531 32.644531 -57.265625 36.15625 -57.265625 C 40 -57.265625 43.382812 -56.253906 46.3125 -54.234375 C 49.25 -52.222656 51.5 -49.425781 53.0625 -45.84375 C 54.632812 -42.257812 55.421875 -38.1875 55.421875 -33.625 C 55.421875 -28.34375 54.554688 -23.859375 52.828125 -20.171875 C 51.097656 -16.492188 48.75 -13.757812 45.78125 -11.96875 C 42.820312 -10.175781 39.519531 -9.28125 35.875 -9.28125 C 31.957031 -9.28125 28.550781 -10.273438 25.65625 -12.265625 C 22.757812 -14.253906 20.523438 -17.054688 18.953125 -20.671875 C 17.390625 -24.285156 16.609375 -28.40625 16.609375 -33.03125 Z M 16.609375 -33.03125 "/></g></g></g><path stroke-linecap="butt" transform="matrix(0, 0.75, -0.75, 0, 109.46736, 33.877897)" fill="none" stroke-linejoin="miter" d="M 0.00134581 27.998148 L 413.329498 27.998148 " stroke="#ffffff" stroke-width="56" stroke-opacity="1" stroke-miterlimit="4"/></svg>